<svg width="32" height="33" viewBox="0 0 32 33" fill="none" xmlns="http://www.w3.org/2000/svg">
<path d="M16.0061 9.31226C15.0629 9.31094 14.1286 9.49576 13.2569 9.85612C12.3852 10.2165 11.5931 10.7453 10.9262 11.4123C10.2592 12.0793 9.73034 12.8713 9.36998 13.743C9.00962 14.6147 8.8248 15.549 8.82612 16.4923C8.82454 17.4357 9.00916 18.3702 9.3694 19.2421C9.72965 20.114 10.2584 20.9063 10.9254 21.5735C11.5925 22.2407 12.3846 22.7697 13.2564 23.1302C14.1283 23.4907 15.0627 23.6756 16.0061 23.6743C16.9494 23.6756 17.8836 23.4908 18.7553 23.1304C19.6271 22.77 20.4191 22.2412 21.0861 21.5742C21.7531 20.9072 22.2819 20.1152 22.6423 19.2435C23.0026 18.3718 23.1874 17.4375 23.1861 16.4943C23.1874 15.551 23.0026 14.6167 22.6423 13.745C22.2819 12.8733 21.7531 12.0813 21.0861 11.4143C20.4191 10.7473 19.6271 10.2185 18.7553 9.85812C17.8836 9.49776 16.9494 9.31094 16.0061 9.31226ZM16.0061 21.1623C14.7692 21.1591 13.584 20.6662 12.7096 19.7914C11.8351 18.9166 11.3428 17.7311 11.3401 16.4943C11.3412 15.2564 11.8333 14.0695 12.7084 13.1939C13.5835 12.3184 14.7702 11.8258 16.0081 11.8243C17.2464 11.8253 18.4336 12.3177 19.3091 13.1932C20.1847 14.0688 20.6771 15.256 20.6781 16.4943C20.6755 17.7318 20.1825 18.9179 19.3073 19.7928C18.432 20.6677 17.2437 21.1601 16.0061 21.1623ZM25.1561 9.01826C25.1566 9.23833 25.1137 9.45635 25.0298 9.6598C24.9459 9.86324 24.8226 10.0481 24.6671 10.2038C24.5116 10.3595 24.3269 10.483 24.1235 10.5672C23.9202 10.6513 23.7022 10.6945 23.4821 10.6943C23.1505 10.6947 22.8262 10.5966 22.5502 10.4126C22.2743 10.2286 22.0592 9.96689 21.9321 9.66056C21.805 9.35423 21.7716 9.01708 21.8362 8.69178C21.9008 8.36648 22.0605 8.06766 22.295 7.83315C22.5295 7.59863 22.8283 7.43897 23.1536 7.37437C23.4789 7.30976 23.8161 7.34312 24.1224 7.47022C24.4287 7.59732 24.6905 7.81245 24.8745 8.08837C25.0585 8.36429 25.1565 8.68861 25.1561 9.02026V9.01826ZM29.9121 10.7183C29.8061 8.47426 29.2921 6.48826 27.6501 4.85026C26.0121 3.21226 24.0241 2.70026 21.7821 2.58826C19.4681 2.45626 12.5381 2.45626 10.2241 2.58826C7.98812 2.69426 6.00012 3.20826 4.35612 4.84426C2.71212 6.48226 2.20612 8.46826 2.09412 10.7123C1.96212 13.0243 1.96212 19.9563 2.09412 22.2683C2.20012 24.5123 2.71412 26.5003 4.35612 28.1383C6.00012 29.7743 7.98212 30.2883 10.2241 30.4003C12.5381 30.5323 19.4681 30.5323 21.7821 30.4003C24.0241 30.2943 26.0121 29.7803 27.6501 28.1383C29.2881 26.5003 29.8001 24.5123 29.9121 22.2683C30.0441 19.9563 30.0441 13.0323 29.9121 10.7183ZM26.9261 24.7503C26.6882 25.3529 26.329 25.9001 25.8707 26.3581C25.4125 26.816 24.8649 27.1748 24.2621 27.4123C22.4181 28.1443 18.0421 27.9763 16.0061 27.9763C13.9681 27.9763 9.58612 28.1363 7.75012 27.4123C7.14769 27.1746 6.60054 26.8157 6.14262 26.3578C5.68469 25.8998 5.32577 25.3527 5.08812 24.7503C4.35612 22.9063 4.52412 18.5303 4.52412 16.4943C4.52412 14.4563 4.36412 10.0743 5.08812 8.23826C5.32554 7.63547 5.68436 7.08792 6.1423 6.62964C6.60023 6.17136 7.1475 5.81213 7.75012 5.57426C9.59412 4.84426 13.9701 5.01426 16.0061 5.01426C18.0441 5.01426 22.4261 4.85026 24.2621 5.57426C24.865 5.812 25.4126 6.17117 25.8709 6.62945C26.3292 7.08773 26.6884 7.63533 26.9261 8.23826C27.6561 10.0823 27.4861 14.4583 27.4861 16.4943C27.4861 18.5323 27.6561 22.9143 26.9261 24.7503Z" fill="white"/>
</svg>
