<svg width="32" height="33" viewBox="0 0 32 33" fill="none" xmlns="http://www.w3.org/2000/svg">
<path d="M28 2.5H3.994C2.894 2.5 2 3.406 2 4.52V28.48C2 29.594 2.894 30.5 3.994 30.5H28C29.1 30.5 30 29.594 30 28.48V4.52C30 3.404 29.1 2.5 28 2.5ZM10.462 26.5H6.312V13.138H10.468V26.5H10.462ZM8.388 11.312C8.06607 11.3213 7.74555 11.2659 7.44541 11.1491C7.14527 11.0323 6.8716 10.8565 6.64061 10.6321C6.40962 10.4076 6.22599 10.1392 6.10061 9.84251C5.97522 9.54586 5.91061 9.22706 5.91061 8.905C5.91061 8.58294 5.97522 8.26415 6.10061 7.96749C6.22599 7.67084 6.40962 7.40236 6.64061 7.17793C6.8716 6.9535 7.14527 6.77769 7.44541 6.6609C7.74555 6.54411 8.06607 6.48872 8.388 6.498C9.01436 6.51606 9.60902 6.77757 10.0457 7.227C10.4823 7.67643 10.7266 8.27837 10.7266 8.905C10.7266 9.53163 10.4823 10.1336 10.0457 10.583C9.60902 11.0324 9.01436 11.2939 8.388 11.312ZM26.018 26.5H21.868V20C21.868 18.45 21.838 16.456 19.712 16.456C17.55 16.456 17.218 18.144 17.218 19.888V26.5H13.068V13.138H17.05V14.962H17.106C17.662 13.912 19.018 12.806 21.038 12.806C25.238 12.806 26.018 15.576 26.018 19.176V26.5Z" fill="white"/>
</svg>
