<svg width="24" height="24" viewBox="0 0 24 24" fill="none" xmlns="http://www.w3.org/2000/svg">
<path d="M14.4053 8.40541L6.15544 16.6554C6.01478 16.796 5.82403 16.8751 5.62512 16.8751C5.42622 16.8751 5.23546 16.796 5.0948 16.6554L0.969711 12.5306C0.82905 12.39 0.750017 12.1992 0.75 12.0003C0.749983 11.8014 0.828982 11.6106 0.96962 11.47C1.11026 11.3293 1.30101 11.2503 1.49992 11.2502C1.69883 11.2502 1.8896 11.3292 2.03026 11.4699L5.62508 15.0644L13.3446 7.34468C13.4853 7.20402 13.6761 7.125 13.875 7.125C14.0739 7.125 14.2647 7.20402 14.4054 7.34468C14.546 7.48535 14.625 7.67612 14.625 7.87505C14.625 8.07397 14.546 8.26475 14.4054 8.40541H14.4053ZM23.0303 7.34468C22.8897 7.20408 22.6989 7.1251 22.5 7.1251C22.3011 7.1251 22.1103 7.20408 21.9696 7.34468L14.2501 15.0644L12.589 13.4036C12.4484 13.2629 12.2576 13.1839 12.0587 13.1839C11.8598 13.184 11.669 13.263 11.5284 13.4036C11.3878 13.5443 11.3088 13.7351 11.3088 13.934C11.3088 14.1329 11.3878 14.3236 11.5285 14.4643L13.7198 16.6554C13.8605 16.796 14.0512 16.8751 14.2501 16.8751C14.449 16.8751 14.6398 16.796 14.7804 16.6554L23.0303 8.40541C23.171 8.26475 23.25 8.07397 23.25 7.87505C23.25 7.67613 23.171 7.48536 23.0303 7.34468Z" fill="#0B63E5"/>
</svg>
